<mxfile host="app.diagrams.net" modified="2023-06-15T00:58:35.674Z" agent="Mozilla/5.0 (Macintosh; Intel Mac OS X 10_15_7) AppleWebKit/537.36 (KHTML, like Gecko) Chrome/114.0.0.0 Safari/537.36" etag="B_BWkMorFQ0URy7HXaLc" version="21.3.7" type="github">
  <diagram name="第 1 页" id="DpziLGVXslOMbl4FlPYI">
    <mxGraphModel dx="1038" dy="644" grid="1" gridSize="10" guides="1" tooltips="1" connect="1" arrows="1" fold="1" page="1" pageScale="1" pageWidth="827" pageHeight="1169" math="0" shadow="0">
      <root>
        <mxCell id="0" />
        <mxCell id="1" parent="0" />
        <mxCell id="1NqhBaO7eKRz2NgzoJ9A-7" value="" style="edgeStyle=orthogonalEdgeStyle;rounded=0;orthogonalLoop=1;jettySize=auto;html=1;" edge="1" parent="1" source="1NqhBaO7eKRz2NgzoJ9A-3" target="1NqhBaO7eKRz2NgzoJ9A-6">
          <mxGeometry relative="1" as="geometry" />
        </mxCell>
        <mxCell id="1NqhBaO7eKRz2NgzoJ9A-3" value="查询结算方式=使用的采购合同商品" style="rounded=1;whiteSpace=wrap;html=1;" vertex="1" parent="1">
          <mxGeometry x="260" y="130" width="120" height="60" as="geometry" />
        </mxCell>
        <mxCell id="1NqhBaO7eKRz2NgzoJ9A-5" style="edgeStyle=orthogonalEdgeStyle;rounded=0;orthogonalLoop=1;jettySize=auto;html=1;" edge="1" parent="1" source="1NqhBaO7eKRz2NgzoJ9A-4" target="1NqhBaO7eKRz2NgzoJ9A-3">
          <mxGeometry relative="1" as="geometry" />
        </mxCell>
        <mxCell id="1NqhBaO7eKRz2NgzoJ9A-4" value="暂估成本表JOB" style="ellipse;whiteSpace=wrap;html=1;" vertex="1" parent="1">
          <mxGeometry x="260" y="10" width="120" height="80" as="geometry" />
        </mxCell>
        <mxCell id="1NqhBaO7eKRz2NgzoJ9A-9" value="" style="edgeStyle=orthogonalEdgeStyle;rounded=0;orthogonalLoop=1;jettySize=auto;html=1;" edge="1" parent="1" source="1NqhBaO7eKRz2NgzoJ9A-6" target="1NqhBaO7eKRz2NgzoJ9A-8">
          <mxGeometry relative="1" as="geometry" />
        </mxCell>
        <mxCell id="1NqhBaO7eKRz2NgzoJ9A-6" value="查询供应商产品列表信息" style="whiteSpace=wrap;html=1;rounded=1;" vertex="1" parent="1">
          <mxGeometry x="260" y="230" width="120" height="60" as="geometry" />
        </mxCell>
        <mxCell id="1NqhBaO7eKRz2NgzoJ9A-13" value="" style="edgeStyle=orthogonalEdgeStyle;rounded=0;orthogonalLoop=1;jettySize=auto;html=1;" edge="1" parent="1" source="1NqhBaO7eKRz2NgzoJ9A-8" target="1NqhBaO7eKRz2NgzoJ9A-12">
          <mxGeometry relative="1" as="geometry" />
        </mxCell>
        <mxCell id="1NqhBaO7eKRz2NgzoJ9A-8" value="根据供应商产品、时间查询所有涉及的jifenProductId,且业务合同商品是订单结算的信息查询出来" style="whiteSpace=wrap;html=1;rounded=1;" vertex="1" parent="1">
          <mxGeometry x="260" y="330" width="120" height="90" as="geometry" />
        </mxCell>
        <mxCell id="1NqhBaO7eKRz2NgzoJ9A-15" value="" style="edgeStyle=orthogonalEdgeStyle;rounded=0;orthogonalLoop=1;jettySize=auto;html=1;" edge="1" parent="1" source="1NqhBaO7eKRz2NgzoJ9A-12" target="1NqhBaO7eKRz2NgzoJ9A-14">
          <mxGeometry relative="1" as="geometry" />
        </mxCell>
        <mxCell id="1NqhBaO7eKRz2NgzoJ9A-16" value="否" style="edgeLabel;html=1;align=center;verticalAlign=middle;resizable=0;points=[];" vertex="1" connectable="0" parent="1NqhBaO7eKRz2NgzoJ9A-15">
          <mxGeometry x="-0.325" y="-3" relative="1" as="geometry">
            <mxPoint as="offset" />
          </mxGeometry>
        </mxCell>
        <mxCell id="1NqhBaO7eKRz2NgzoJ9A-28" value="" style="edgeStyle=orthogonalEdgeStyle;rounded=0;orthogonalLoop=1;jettySize=auto;html=1;" edge="1" parent="1" source="1NqhBaO7eKRz2NgzoJ9A-12">
          <mxGeometry relative="1" as="geometry">
            <mxPoint x="320" y="600" as="targetPoint" />
          </mxGeometry>
        </mxCell>
        <mxCell id="1NqhBaO7eKRz2NgzoJ9A-29" value="是" style="edgeLabel;html=1;align=center;verticalAlign=middle;resizable=0;points=[];" vertex="1" connectable="0" parent="1NqhBaO7eKRz2NgzoJ9A-28">
          <mxGeometry x="0.0319" y="-1" relative="1" as="geometry">
            <mxPoint as="offset" />
          </mxGeometry>
        </mxCell>
        <mxCell id="1NqhBaO7eKRz2NgzoJ9A-12" value="判断供应商产品是否是微能(非充值系统)" style="rhombus;whiteSpace=wrap;html=1;rounded=1;" vertex="1" parent="1">
          <mxGeometry x="260" y="460" width="120" height="80" as="geometry" />
        </mxCell>
        <mxCell id="1NqhBaO7eKRz2NgzoJ9A-20" value="" style="edgeStyle=orthogonalEdgeStyle;rounded=0;orthogonalLoop=1;jettySize=auto;html=1;" edge="1" parent="1" source="1NqhBaO7eKRz2NgzoJ9A-14" target="1NqhBaO7eKRz2NgzoJ9A-19">
          <mxGeometry relative="1" as="geometry" />
        </mxCell>
        <mxCell id="1NqhBaO7eKRz2NgzoJ9A-14" value="根据业务合同商品查询销售月度范围的日账单的总数量" style="whiteSpace=wrap;html=1;rounded=1;" vertex="1" parent="1">
          <mxGeometry x="460" y="470" width="120" height="60" as="geometry" />
        </mxCell>
        <mxCell id="1NqhBaO7eKRz2NgzoJ9A-17" value="获取销售数量" style="whiteSpace=wrap;html=1;rounded=1;arcSize=50;align=center;verticalAlign=middle;strokeWidth=1;autosize=1;spacing=4;treeFolding=1;treeMoving=1;newEdgeStyle={&quot;edgeStyle&quot;:&quot;entityRelationEdgeStyle&quot;,&quot;startArrow&quot;:&quot;none&quot;,&quot;endArrow&quot;:&quot;none&quot;,&quot;segment&quot;:10,&quot;curved&quot;:1,&quot;sourcePerimeterSpacing&quot;:0,&quot;targetPerimeterSpacing&quot;:0};" vertex="1" parent="1">
          <mxGeometry x="440" y="400" width="120" height="30" as="geometry" />
        </mxCell>
        <mxCell id="1NqhBaO7eKRz2NgzoJ9A-18" value="" style="edgeStyle=entityRelationEdgeStyle;startArrow=none;endArrow=none;segment=10;curved=1;sourcePerimeterSpacing=0;targetPerimeterSpacing=0;rounded=0;exitX=0.364;exitY=-0.016;exitDx=0;exitDy=0;exitPerimeter=0;" edge="1" target="1NqhBaO7eKRz2NgzoJ9A-17" parent="1" source="1NqhBaO7eKRz2NgzoJ9A-14">
          <mxGeometry relative="1" as="geometry">
            <mxPoint x="320" y="390" as="sourcePoint" />
          </mxGeometry>
        </mxCell>
        <mxCell id="1NqhBaO7eKRz2NgzoJ9A-24" value="" style="edgeStyle=orthogonalEdgeStyle;rounded=0;orthogonalLoop=1;jettySize=auto;html=1;" edge="1" parent="1" source="1NqhBaO7eKRz2NgzoJ9A-19" target="1NqhBaO7eKRz2NgzoJ9A-23">
          <mxGeometry relative="1" as="geometry" />
        </mxCell>
        <mxCell id="1NqhBaO7eKRz2NgzoJ9A-19" value="根据供应商产品、时间查询卡券数量" style="whiteSpace=wrap;html=1;rounded=1;" vertex="1" parent="1">
          <mxGeometry x="660" y="470" width="120" height="60" as="geometry" />
        </mxCell>
        <mxCell id="1NqhBaO7eKRz2NgzoJ9A-21" value="查询 销售时间与使用时间不在同一月的使用数量、T-1月的过期数量" style="whiteSpace=wrap;html=1;rounded=1;arcSize=50;align=center;verticalAlign=middle;strokeWidth=1;autosize=1;spacing=4;treeFolding=1;treeMoving=1;newEdgeStyle={&quot;edgeStyle&quot;:&quot;entityRelationEdgeStyle&quot;,&quot;startArrow&quot;:&quot;none&quot;,&quot;endArrow&quot;:&quot;none&quot;,&quot;segment&quot;:10,&quot;curved&quot;:1,&quot;sourcePerimeterSpacing&quot;:0,&quot;targetPerimeterSpacing&quot;:0};" vertex="1" parent="1">
          <mxGeometry x="600" y="390" width="400" height="30" as="geometry" />
        </mxCell>
        <mxCell id="1NqhBaO7eKRz2NgzoJ9A-22" value="" style="edgeStyle=entityRelationEdgeStyle;startArrow=none;endArrow=none;segment=10;curved=1;sourcePerimeterSpacing=0;targetPerimeterSpacing=0;rounded=0;exitX=0.25;exitY=0;exitDx=0;exitDy=0;" edge="1" target="1NqhBaO7eKRz2NgzoJ9A-21" parent="1" source="1NqhBaO7eKRz2NgzoJ9A-19">
          <mxGeometry relative="1" as="geometry">
            <mxPoint x="570" y="380" as="sourcePoint" />
          </mxGeometry>
        </mxCell>
        <mxCell id="1NqhBaO7eKRz2NgzoJ9A-23" value="计算本期核销、本期作废、期末数量" style="whiteSpace=wrap;html=1;rounded=1;" vertex="1" parent="1">
          <mxGeometry x="1020" y="470" width="120" height="60" as="geometry" />
        </mxCell>
        <mxCell id="1NqhBaO7eKRz2NgzoJ9A-25" value="&lt;article data-identifier-application__slash__x-doc-key=&quot;JZWGl0QW7VyBn34Y&quot; data-identifier-application__slash__x-cangjie-fragment=&quot;JTdCJTIya2xhc3MlMjIlM0ElMjJkb2N1bWVudCUyMiUyQyUyMmRhdGElMjIlM0ElN0IlN0QlMkMlMjJub2RlcyUyMiUzQSU1QiU3QiUyMmtsYXNzJTIyJTNBJTIyYmxvY2slMjIlMkMlMjJ0eXBlJTIyJTNBJTIycGFyYWdyYXBoJTIyJTJDJTIyZGF0YSUyMiUzQSU3QiU3RCUyQyUyMm5vZGVzJTIyJTNBJTVCJTdCJTIya2xhc3MlMjIlM0ElMjJ0ZXh0JTIyJTJDJTIybGVhdmVzJTIyJTNBJTVCJTdCJTIya2xhc3MlMjIlM0ElMjJsZWFmJTIyJTJDJTIydGV4dCUyMiUzQSUyMiVFNiU5QyU5RiVFNSU4OCU5RCVFNiU5NSVCMCVFOSU4NyU4RiUyQiVFNiU5QyVBQyVFNiU5QyU5RiVFNiU5NiVCMCVFNSVBMiU5RS0lRTYlOUMlQUMlRTYlOUMlOUYlRTQlQkQlQkYlRTclOTQlQTgtJUU2JTlDJUFDJUU2JTlDJTlGJUU0JUJEJTlDJUU1JUJBJTlGJTIyJTJDJTIybWFya3MlMjIlM0ElNUIlNUQlN0QlNUQlN0QlNUQlN0QlNUQlN0Q=&quot; data-clipboard-cangjie=&quot;[&amp;quot;root&amp;quot;,{&amp;quot;copyFrom&amp;quot;:158123888},[&amp;quot;p&amp;quot;,{},[&amp;quot;span&amp;quot;,{&amp;quot;data-type&amp;quot;:&amp;quot;text&amp;quot;},[&amp;quot;span&amp;quot;,{&amp;quot;data-type&amp;quot;:&amp;quot;leaf&amp;quot;},&amp;quot;期初数量+本期新增-本期使用-本期作废&amp;quot;]]]]&quot; class=&quot;4ever-article&quot;&gt;&lt;p style=&quot;text-align: left; margin-left: 0px; margin-top: 0px; margin-bottom: 0px;&quot;&gt;期末数量=期初数量+本期新增-本期使用-本期作废&lt;/p&gt;&lt;/article&gt;" style="whiteSpace=wrap;html=1;rounded=1;arcSize=50;align=center;verticalAlign=middle;strokeWidth=1;autosize=1;spacing=4;treeFolding=1;treeMoving=1;newEdgeStyle={&quot;edgeStyle&quot;:&quot;entityRelationEdgeStyle&quot;,&quot;startArrow&quot;:&quot;none&quot;,&quot;endArrow&quot;:&quot;none&quot;,&quot;segment&quot;:10,&quot;curved&quot;:1,&quot;sourcePerimeterSpacing&quot;:0,&quot;targetPerimeterSpacing&quot;:0};" vertex="1" parent="1">
          <mxGeometry x="1000" y="390" width="310" height="30" as="geometry" />
        </mxCell>
        <mxCell id="1NqhBaO7eKRz2NgzoJ9A-26" value="" style="edgeStyle=entityRelationEdgeStyle;startArrow=none;endArrow=none;segment=10;curved=1;sourcePerimeterSpacing=0;targetPerimeterSpacing=0;rounded=0;exitX=0.437;exitY=-0.001;exitDx=0;exitDy=0;exitPerimeter=0;" edge="1" target="1NqhBaO7eKRz2NgzoJ9A-25" parent="1" source="1NqhBaO7eKRz2NgzoJ9A-23">
          <mxGeometry relative="1" as="geometry">
            <mxPoint x="810" y="380" as="sourcePoint" />
          </mxGeometry>
        </mxCell>
      </root>
    </mxGraphModel>
  </diagram>
</mxfile>
